<svg xmlns="http://www.w3.org/2000/svg" width="293.333" height="260.74" viewBox="0 0 293.333 260.74">
  <path id="abacus-light" d="M285.185,0a8.146,8.146,0,0,0-8.148,8.148V40.741H244.444V32.593a16.3,16.3,0,0,0-16.3-16.3h-16.3a16.3,16.3,0,0,0-16.3,16.3v8.148H146.667V32.593a16.3,16.3,0,0,0-16.3-16.3h-16.3a16.3,16.3,0,0,0-16.3,16.3v8.148h-16.3V32.593a16.3,16.3,0,0,0-16.3-16.3h-16.3a16.3,16.3,0,0,0-16.3,16.3v8.148H16.3V8.148a8.148,8.148,0,1,0-16.3,0V256.667a4.073,4.073,0,0,0,4.074,4.074h8.148a4.073,4.073,0,0,0,4.074-4.074V220h16.3v8.148a16.3,16.3,0,0,0,16.3,16.3h16.3a16.3,16.3,0,0,0,16.3-16.3V220h16.3v8.148a16.3,16.3,0,0,0,16.3,16.3h16.3a16.3,16.3,0,0,0,16.3-16.3V220h48.889v8.148a16.3,16.3,0,0,0,16.3,16.3h16.3a16.3,16.3,0,0,0,16.3-16.3V220h32.593v36.667a4.073,4.073,0,0,0,4.074,4.074h8.148a4.073,4.073,0,0,0,4.074-4.074V8.148A8.146,8.146,0,0,0,285.185,0ZM211.852,32.593h16.3V65.185h-16.3Zm-97.778,0h16.3V65.185h-16.3Zm-65.185,0h16.3V65.185h-16.3Zm16.3,195.556h-16.3V195.556h16.3Zm65.185,0h-16.3V195.556h16.3Zm97.778,0h-16.3V195.556h16.3ZM277.037,203.7H244.444v-8.148a16.3,16.3,0,0,0-16.3-16.3h-16.3a16.3,16.3,0,0,0-16.3,16.3V203.7H146.667v-8.148a16.3,16.3,0,0,0-16.3-16.3h-16.3a16.3,16.3,0,0,0-16.3,16.3V203.7h-16.3v-8.148a16.3,16.3,0,0,0-16.3-16.3h-16.3a16.3,16.3,0,0,0-16.3,16.3V203.7H16.3V138.519h16.3v8.148a16.3,16.3,0,0,0,16.3,16.3h16.3a16.3,16.3,0,0,0,16.3-16.3v-8.148h16.3v8.148a16.3,16.3,0,0,0,16.3,16.3h16.3a16.3,16.3,0,0,0,16.3-16.3v-8.148h16.3v8.148a16.3,16.3,0,0,0,16.3,16.3h16.3a16.3,16.3,0,0,0,16.3-16.3v-8.148h65.185ZM48.889,146.667V114.074h16.3v32.593Zm65.185,0V114.074h16.3v32.593Zm65.185,0V114.074h16.3v32.593Zm97.778-24.444H211.852v-8.148a16.3,16.3,0,0,0-16.3-16.3h-16.3a16.3,16.3,0,0,0-16.3,16.3v8.148h-16.3v-8.148a16.3,16.3,0,0,0-16.3-16.3h-16.3a16.3,16.3,0,0,0-16.3,16.3v8.148h-16.3v-8.148a16.3,16.3,0,0,0-16.3-16.3h-16.3a16.3,16.3,0,0,0-16.3,16.3v8.148H16.3V57.037h16.3v8.148a16.3,16.3,0,0,0,16.3,16.3h16.3a16.3,16.3,0,0,0,16.3-16.3V57.037h16.3v8.148a16.3,16.3,0,0,0,16.3,16.3h16.3a16.3,16.3,0,0,0,16.3-16.3V57.037h48.889v8.148a16.3,16.3,0,0,0,16.3,16.3h16.3a16.3,16.3,0,0,0,16.3-16.3V57.037h32.593Z" fill="#fff"/>
</svg>
