<svg xmlns="http://www.w3.org/2000/svg" width="293.333" height="293.332" viewBox="0 0 293.333 293.332">
  <path id="comment-alt-smile-light" d="M256.666,0h-220A36.7,36.7,0,0,0,0,36.667v165a36.7,36.7,0,0,0,36.667,36.667h55v48.125a6.855,6.855,0,0,0,6.875,6.875,6.578,6.578,0,0,0,4.068-1.375l71.557-53.625h82.5a36.7,36.7,0,0,0,36.667-36.667v-165A36.7,36.7,0,0,0,256.666,0ZM275,201.666A18.387,18.387,0,0,1,256.666,220h-88.63l-4.87,3.667L110,263.541V220H36.667a18.387,18.387,0,0,1-18.333-18.333v-165A18.387,18.387,0,0,1,36.667,18.333h220A18.387,18.387,0,0,1,275,36.667Zm-84.906-65.713a57.426,57.426,0,0,1-86.854.057,9.163,9.163,0,1,0-13.922,11.917,75.8,75.8,0,0,0,114.755-.057,9.185,9.185,0,1,0-13.979-11.917ZM110,105.417a13.75,13.75,0,1,0-13.75-13.75A13.717,13.717,0,0,0,110,105.417Zm73.333,0a13.75,13.75,0,1,0-13.75-13.75A13.717,13.717,0,0,0,183.333,105.417Z" fill="#fff"/>
</svg>
