<svg xmlns="http://www.w3.org/2000/svg" viewBox="0 0 60 50"><defs><style>.cls-1{fill:#edcb50;}.cls-2{fill:#10393a;}</style></defs><g id="Ebene_2" data-name="Ebene 2"><g id="Ebene_1-2" data-name="Ebene 1"><g id="Gruppe_2469" data-name="Gruppe 2469"><rect id="Rechteck_382" data-name="Rechteck 382" class="cls-1" width="60" height="50" rx="10"/><path id="Pfad_1068" data-name="Pfad 1068" class="cls-2" d="M19.66,14q4.28,0,6.25,2.92a9.9,9.9,0,0,1,1.42,3.16,16,16,0,0,1,.55,4.34A14.23,14.23,0,0,1,25.75,32a13.92,13.92,0,0,1-6.24,5.37L18.8,36a11.22,11.22,0,0,0,3.67-2.73,10.06,10.06,0,0,0,2.25-3.75,7.94,7.94,0,0,0,.4-2.6A7.23,7.23,0,0,0,25,25.16a7.13,7.13,0,0,1-5.77,2.45,7.08,7.08,0,0,1-5.05-1.78,6.5,6.5,0,0,1-1.9-5,6.34,6.34,0,0,1,2-4.94A7.7,7.7,0,0,1,19.66,14Zm18.17,0q4.28,0,6.25,2.92A9.9,9.9,0,0,1,45.5,20.1a16,16,0,0,1,.55,4.34A14.23,14.23,0,0,1,43.92,32a13.92,13.92,0,0,1-6.24,5.37L37,36a11.44,11.44,0,0,0,3.67-2.73,10.19,10.19,0,0,0,2.25-3.75,7.7,7.7,0,0,0,.4-2.61,6.84,6.84,0,0,0-.16-1.74,7.09,7.09,0,0,1-5.76,2.45,7.08,7.08,0,0,1-5.07-1.77,6.57,6.57,0,0,1-1.9-5,6.34,6.34,0,0,1,2.05-4.94A7.72,7.72,0,0,1,37.83,14Z"/></g></g></g></svg>