<svg xmlns="http://www.w3.org/2000/svg" viewBox="0 0 43.64 97.80388"><g id="Ebene_2" data-name="Ebene 2"><g id="Ebene_1-2" data-name="Ebene 1"><g id="Gruppe_2505" data-name="Gruppe 2505"><path id="Pfad_1060" data-name="Pfad 1060" d="M0,73.95388c0,13.71,8.54,23.85,21.79,23.85s21.78-10.14,21.78-23.85v-16.5H0Zm10.34,0v-4H33.4v4c0,6.61-4.18,11-11.56,11S10.34,80.57388,10.34,73.95388Z" fill="#10393a"/><path id="Pfad_1059" data-name="Pfad 1059" d="M34.82,10.10388c5.52,3.8,8.82,10.21,8.82,18.4,0,13.38-8.93,22.73-21.82,22.73S0,42.62388,0,28.50388c0-8.19,3.18-14.37,8.71-18.11l6.64,7.84a12.35,12.35,0,0,0-5.14,10.26c0,6.53,4.41,10.45,11.66,10.45s11.72-3.92,11.72-10.45a12,12,0,0,0-5.19-10.26Z" fill="#10393a"/><path id="Pfad_1058" data-name="Pfad 1058" d="M20.93,13.26388a6.46,6.46,0,0,0,6.25-6.65,6.26,6.26,0,1,0-12.5,0h0a6.45,6.45,0,0,0,6.23,6.65Z" fill="#f08451"/></g></g></g></svg>