<svg xmlns="http://www.w3.org/2000/svg" width="79.419" height="47.676" viewBox="0 0 79.419 47.676">
  <path id="handshake-alt-light" d="M29.583,77.8,39.9,68.342a2,2,0,0,1,1.34-.521H53.769a1.982,1.982,0,0,1,1.415.6l7.532,7.334h15.71a1,1,0,0,0,.993-.993V72.772a1,1,0,0,0-.993-.993H64.341l-6.353-6.192a5.9,5.9,0,0,0-4.207-1.75H41.248a5.9,5.9,0,0,0-3.512,1.241A5.974,5.974,0,0,0,34.1,63.8H25.476a6.007,6.007,0,0,0-4.219,1.75l-6.192,6.217H.993A1,1,0,0,0,0,72.759v1.985a1,1,0,0,0,.993.993H16.7l7.359-7.359a1.993,1.993,0,0,1,1.4-.583h8.624c.112.273.037.087.137.36L26.9,74.869a8.5,8.5,0,0,0-.521,12.024c1.775,1.936,7.272,4.877,12.024.521l2.829-2.594L56.822,97.466a1.987,1.987,0,0,1,.285,2.792l-1.179,1.452a1.982,1.982,0,0,1-2.792.285l-2.209-1.787-5.15,6.329a2.624,2.624,0,0,1-3.648.422l-3.8-3.239-1.291,1.588a5.959,5.959,0,0,1-8.265.98L17.621,95.6H.993A1,1,0,0,0,0,96.6v1.985a1,1,0,0,0,.993.993h15.04l10.113,9.679a9.956,9.956,0,0,0,12.533-.025l.893.769a6.619,6.619,0,0,0,9.294-.956l2.718-3.338a5.959,5.959,0,0,0,7.445-1.489l1.179-1.452a5.95,5.95,0,0,0,1.3-3.189H78.426a1,1,0,0,0,.993-.993V96.6a1,1,0,0,0-.993-.993H60.408a6.294,6.294,0,0,0-1.092-1.216L44.189,82.1l3.524-3.239a1.985,1.985,0,1,0-2.68-2.929l-9.319,8.538A4.689,4.689,0,0,1,29.3,84.2,4.545,4.545,0,0,1,29.583,77.8Z" transform="translate(0 -63.801)" fill="#357362"/>
</svg>
