<svg xmlns="http://www.w3.org/2000/svg" viewBox="0 0 97.34131 12.2334"><g id="Ebene_2" data-name="Ebene 2"><g id="Ebene_1-2" data-name="Ebene 1"><path d="M3.01025,3.01074a2.17921,2.17921,0,0,1,1.40332.39551h.04786a3.84518,3.84518,0,0,1-.01221-.41943V.48h2.375V9.4751h-2.207V9.355a1.42427,1.42427,0,0,1,.02392-.2876H4.59326A2.2978,2.2978,0,0,1,2.90234,9.667C1.22314,9.667,0,8.33594,0,6.34473A3.05641,3.05641,0,0,1,3.01025,3.01074ZM4.5332,6.30908a1.07059,1.07059,0,1,0-2.12256,0,1.072,1.072,0,1,0,2.12256,0Z" fill="#10393a"/><path d="M8.00342,8.33594A1.34326,1.34326,0,1,1,9.34668,9.6792,1.341,1.341,0,0,1,8.00342,8.33594ZM8.17139.48h2.39843V6.21289H8.17139Z" fill="#10393a"/><path d="M14.48193,3.01074a2.22387,2.22387,0,0,1,1.667.62354h.04785a1.35592,1.35592,0,0,1-.02393-.228V3.20264h2.19483V12.2334H13.76221V10.15869h2.24316V9.355a3.13758,3.13758,0,0,1,.01172-.38379h-.04785a2.17057,2.17057,0,0,1-1.43945.43213,2.9075,2.9075,0,0,1-2.91407-3.19043A2.90882,2.90882,0,0,1,14.48193,3.01074ZM14.01416,6.189a1.04008,1.04008,0,1,0,2.07471,0,1.03934,1.03934,0,1,0-2.07471,0Z" fill="#10393a"/><path d="M19.3916,1.36768A1.35877,1.35877,0,0,1,20.75879.00049,1.37926,1.37926,0,0,1,22.1499,1.36768a1.38165,1.38165,0,0,1-1.39111,1.3789A1.36138,1.36138,0,0,1,19.3916,1.36768Zm.17969,8.10742V3.20264h2.39892V9.4751Z" fill="#10393a"/><path d="M23.44727,5.25342H22.9917V3.20264h.45557V1.6792h2.39892V3.20264h1.00733V5.25342H25.84619v2.147h.82715V9.4751H23.44727Z" fill="#10393a"/><path d="M30.4541,3.01074a2.09876,2.09876,0,0,1,1.583.53955H32.085a.56484.56484,0,0,1-.02392-.168V3.20264h2.19482V9.4751H32.061V9.29541a1.12433,1.12433,0,0,1,.02392-.228h-.04785a2.29781,2.29781,0,0,1-1.69092.59961c-1.6792,0-2.90234-1.331-2.90234-3.32226A3.05641,3.05641,0,0,1,30.4541,3.01074Zm1.52295,3.29834a1.07205,1.07205,0,1,0-2.12256,0c0,.76758.43164,1.25928,1.05518,1.25928A1.1125,1.1125,0,0,0,31.97705,6.30908Z" fill="#10393a"/><path d="M35.45947.48H37.8584V7.40039h.80322V9.4751H35.45947Z" fill="#10393a"/><path d="M46.07666,5.64941a1.05448,1.05448,0,0,0-1.01953-.564c-.63574,0-1.01953.45605-1.01953,1.22363s.38379,1.25928,1.01953,1.25928a1.04169,1.04169,0,0,0,1.00732-.55176l1.40332,1.415A2.84891,2.84891,0,0,1,44.99707,9.667,3.1988,3.1988,0,0,1,41.627,6.34473a3.20167,3.20167,0,0,1,3.37012-3.334,2.93385,2.93385,0,0,1,2.51855,1.187Z" fill="#10393a"/><path d="M48.19092.48h2.39892V7.40039h.80323V9.4751H48.19092Z" fill="#10393a"/><path d="M52.35449,9.4751V3.20264h2.39893V7.40039h1.03125V3.20264h2.39844V9.4751Z" fill="#10393a"/><path d="M61.86963,5.28955l.7793.44336a1.97746,1.97746,0,0,1,1.2832,1.85938c0,1.21093-.89942,2.0747-2.4585,2.0747A2.38364,2.38364,0,0,1,58.99121,8.144l1.52295-.88769a1.24579,1.24579,0,0,0,.94727.62353.182.182,0,0,0,.2041-.168c0-.07177-.04785-.168-.21582-.27587l-.79151-.4917c-.68359-.41944-1.41552-.79151-1.41552-1.9668a2.10745,2.10745,0,0,1,2.231-1.9668,2.55423,2.55423,0,0,1,2.41065,1.29541L62.457,5.25342a1.43508,1.43508,0,0,0-.92334-.58789.18393.18393,0,0,0-.2041.18017C61.32959,4.97754,61.46143,5.06152,61.86963,5.28955Z" fill="#10393a"/><path d="M65.13428,5.25342h-.45557V3.20264h.45557V1.6792H67.5332V3.20264h1.00733V5.25342H67.5332v2.147h.82715V9.4751H65.13428Z" fill="#10393a"/><path d="M72.5127,9.667a3.19568,3.19568,0,0,1-3.40625-3.32226,3.1855,3.1855,0,0,1,3.38232-3.334,3.006,3.006,0,0,1,3.04639,3.29834,3.00675,3.00675,0,0,1-.06006.65918H71.58936c.13183.41992.44335.624,1.019.624a1.2282,1.2282,0,0,0,1.10351-.52784l1.35547,1.439A2.95965,2.95965,0,0,1,72.5127,9.667Zm-.93555-4.02978h1.61914a.73064.73064,0,0,0-.76758-.65967A.78613.78613,0,0,0,71.57715,5.63721Z" fill="#10393a"/><path d="M79.67676,3.20264V5.31348h-.86328V9.4751H76.41455V3.20264Z" fill="#10393a"/><path d="M83.51855,9.47461V3.20215h2.39893V7.3999h1.03125V3.20215h2.39893V9.47461Z" fill="#f08451"/><path d="M93.813,3.20215V5.313h-.86328V9.47461H90.55078V3.20215Z" fill="#f08451"/><path d="M94.583,1.36719A1.35877,1.35877,0,0,1,95.9502,0a1.37926,1.37926,0,0,1,1.39111,1.36719,1.38165,1.38165,0,0,1-1.39111,1.3789A1.36138,1.36138,0,0,1,94.583,1.36719Zm.17969,8.10742V3.20215h2.39892V9.47461Z" fill="#f08451"/></g></g></svg>